<svg width="15" height="15" viewBox="0 0 15 15" fill="none" xmlns="http://www.w3.org/2000/svg">
<path d="M13.3008 11.7121C12.985 10.964 12.5267 10.2845 11.9515 9.71149C11.378 9.13679 10.6986 8.67858 9.9509 8.36216C9.9442 8.35882 9.93751 8.35714 9.93081 8.35379C10.9738 7.60044 11.6518 6.37332 11.6518 4.98884C11.6518 2.69531 9.79353 0.837051 7.50001 0.837051C5.20648 0.837051 3.34822 2.69531 3.34822 4.98884C3.34822 6.37332 4.02623 7.60044 5.0692 8.35547C5.06251 8.35881 5.05581 8.36049 5.04911 8.36384C4.29911 8.68024 3.62612 9.13393 3.04856 9.71317C2.47385 10.2867 2.01564 10.966 1.69923 11.7137C1.38838 12.4457 1.22074 13.2305 1.20536 14.0257C1.20492 14.0435 1.20805 14.0613 1.21458 14.0779C1.22111 14.0946 1.23091 14.1097 1.24339 14.1225C1.25587 14.1353 1.27078 14.1455 1.28726 14.1524C1.30373 14.1594 1.32142 14.163 1.33929 14.1629H2.34376C2.41742 14.1629 2.47601 14.1044 2.47769 14.0324C2.51117 12.74 3.03014 11.5296 3.94755 10.6122C4.89677 9.66295 6.15737 9.14062 7.50001 9.14062C8.84264 9.14062 10.1032 9.66295 11.0525 10.6122C11.9699 11.5296 12.4888 12.74 12.5223 14.0324C12.524 14.106 12.5826 14.1629 12.6563 14.1629H13.6607C13.6786 14.163 13.6963 14.1594 13.7128 14.1524C13.7292 14.1455 13.7441 14.1353 13.7566 14.1225C13.7691 14.1097 13.7789 14.0946 13.7854 14.0779C13.792 14.0613 13.7951 14.0435 13.7946 14.0257C13.7779 13.2254 13.6122 12.447 13.3008 11.7121ZM7.50001 7.8683C6.73159 7.8683 6.00838 7.56864 5.46429 7.02455C4.92021 6.48047 4.62054 5.75725 4.62054 4.98884C4.62054 4.22042 4.92021 3.49721 5.46429 2.95312C6.00838 2.40904 6.73159 2.10937 7.50001 2.10937C8.26842 2.10937 8.99164 2.40904 9.53572 2.95312C10.0798 3.49721 10.3795 4.22042 10.3795 4.98884C10.3795 5.75725 10.0798 6.48047 9.53572 7.02455C8.99164 7.56864 8.26842 7.8683 7.50001 7.8683Z" fill="black"/>
</svg>
